<svg width="80" height="80" viewBox="0 0 80 80" fill="none" xmlns="http://www.w3.org/2000/svg">
<path d="M40 77.8378C32.5163 77.8378 25.2008 75.6187 18.9784 71.461C12.756 67.3033 7.90622 61.3939 5.04236 54.4799C2.1785 47.566 1.42919 39.958 2.88917 32.6182C4.34915 25.2784 7.95286 18.5363 13.2446 13.2446C18.5363 7.95289 25.2783 4.34919 32.6182 2.88921C39.958 1.42923 47.5659 2.17854 54.4799 5.0424C61.3938 7.90626 67.3033 12.756 71.461 18.9784C75.6187 25.2008 77.8378 32.5164 77.8378 40C77.8264 50.0317 73.8362 59.6493 66.7427 66.7428C59.6492 73.8363 50.0317 77.8264 40 77.8378ZM40 4.32433C32.944 4.32433 26.0465 6.41667 20.1796 10.3368C14.3128 14.2569 9.74015 19.8286 7.03994 26.3475C4.33973 32.8664 3.63323 40.0396 5.00979 46.96C6.38634 53.8804 9.78412 60.2372 14.7735 65.2265C19.7628 70.2159 26.1196 73.6136 33.04 74.9902C39.9604 76.3667 47.1336 75.6602 53.6525 72.96C60.1713 70.2598 65.7431 65.6872 69.6632 59.8203C73.5833 53.9535 75.6756 47.056 75.6756 40C75.6651 30.5415 71.903 21.4734 65.2148 14.7852C58.5266 8.09699 49.4585 4.33491 40 4.32433Z" fill="#FED739"/>
<path d="M39.9998 71.3513C33.7991 71.3513 27.7376 69.5126 22.5819 66.0677C17.4262 62.6228 13.4078 57.7264 11.0349 51.9976C8.66202 46.2689 8.04116 39.9652 9.25086 33.8837C10.4606 27.8021 13.4465 22.2158 17.831 17.8312C22.2156 13.4467 27.8019 10.4608 33.8835 9.25106C39.965 8.04136 46.2687 8.66222 51.9974 11.0351C57.7262 13.408 62.6226 17.4264 66.0675 22.5821C69.5124 27.7378 71.3512 33.7993 71.3512 40C71.3417 48.312 68.0356 56.2808 62.1581 62.1583C56.2806 68.0358 48.3118 71.3419 39.9998 71.3513ZM39.9998 10.8108C34.2267 10.8108 28.5833 12.5227 23.7832 15.7301C18.983 18.9374 15.2418 23.4962 13.0325 28.8298C10.8232 34.1634 10.2452 40.0324 11.3715 45.6945C12.4977 51.3567 15.2777 56.5577 19.3599 60.6399C23.4421 64.7221 28.6431 67.5021 34.3053 68.6283C39.9674 69.7546 45.8364 69.1766 51.17 66.9673C56.5036 64.758 61.0624 61.0168 64.2697 56.2166C67.4771 51.4165 69.189 45.7731 69.189 40C69.1801 32.2613 66.102 24.842 60.6299 19.3699C55.1578 13.8978 47.7385 10.8197 39.9998 10.8108Z" fill="#FED739"/>
<path d="M39.9991 18.6822C39.7123 18.6822 39.4374 18.5683 39.2346 18.3655C39.0319 18.1628 38.918 17.8878 38.918 17.6011V15.7438C38.918 15.4571 39.0319 15.1821 39.2346 14.9793C39.4374 14.7766 39.7123 14.6627 39.9991 14.6627C40.2858 14.6627 40.5607 14.7766 40.7635 14.9793C40.9662 15.1821 41.0801 15.4571 41.0801 15.7438V17.6022C41.0798 17.8887 40.9658 18.1634 40.7631 18.3659C40.5604 18.5684 40.2856 18.6822 39.9991 18.6822Z" fill="#FED739"/>
<path d="M39.9991 65.3384C39.7123 65.3384 39.4374 65.2245 39.2346 65.0217C39.0319 64.819 38.918 64.544 38.918 64.2573V62.3989C38.918 62.1122 39.0319 61.8372 39.2346 61.6345C39.4374 61.4317 39.7123 61.3178 39.9991 61.3178C40.2858 61.3178 40.5607 61.4317 40.7635 61.6345C40.9662 61.8372 41.0801 62.1122 41.0801 62.3989V64.2573C41.0801 64.544 40.9662 64.819 40.7635 65.0217C40.5607 65.2245 40.2858 65.3384 39.9991 65.3384Z" fill="#FED739"/>
<path d="M55.8367 25.2432C55.6229 25.2432 55.414 25.1798 55.2362 25.061C55.0585 24.9422 54.9199 24.7734 54.8381 24.5758C54.7563 24.3783 54.7349 24.161 54.7766 23.9513C54.8183 23.7416 54.9212 23.549 55.0724 23.3978L56.3859 22.0843C56.5898 21.8874 56.8629 21.7784 57.1463 21.7809C57.4298 21.7834 57.7009 21.8971 57.9014 22.0975C58.1018 22.2979 58.2155 22.5691 58.218 22.8525C58.2204 23.136 58.1115 23.4091 57.9145 23.613L56.601 24.9265C56.3983 25.1292 56.1234 25.2432 55.8367 25.2432Z" fill="#FED739"/>
<path d="M22.8484 58.2335C22.6346 58.2335 22.4257 58.17 22.2479 58.0513C22.0702 57.9325 21.9317 57.7636 21.8499 57.5661C21.7681 57.3686 21.7466 57.1513 21.7883 56.9416C21.83 56.7319 21.933 56.5393 22.0841 56.3881L23.3976 55.0746C23.6015 54.8777 23.8746 54.7687 24.158 54.7712C24.4415 54.7736 24.7127 54.8873 24.9131 55.0878C25.1135 55.2882 25.2272 55.5594 25.2297 55.8428C25.2322 56.1263 25.1232 56.3994 24.9263 56.6032L23.6127 57.9168C23.4101 58.1195 23.1351 58.2335 22.8484 58.2335Z" fill="#FED739"/>
<path d="M64.2578 41.0811H62.3994C62.1127 41.0811 61.8377 40.9672 61.635 40.7644C61.4323 40.5617 61.3184 40.2867 61.3184 40C61.3184 39.7133 61.4323 39.4383 61.635 39.2356C61.8377 39.0328 62.1127 38.9189 62.3994 38.9189H64.2578C64.5445 38.9189 64.8195 39.0328 65.0223 39.2356C65.225 39.4383 65.3389 39.7133 65.3389 40C65.3389 40.2867 65.225 40.5617 65.0223 40.7644C64.8195 40.9672 64.5445 41.0811 64.2578 41.0811Z" fill="#FED739"/>
<path d="M17.6005 41.0811H15.7432C15.4565 41.0811 15.1815 40.9672 14.9788 40.7644C14.776 40.5617 14.6621 40.2867 14.6621 40C14.6621 39.7133 14.776 39.4383 14.9788 39.2356C15.1815 39.0328 15.4565 38.9189 15.7432 38.9189H17.6016C17.8883 38.9189 18.1633 39.0328 18.366 39.2356C18.5688 39.4383 18.6827 39.7133 18.6827 40C18.6827 40.2867 18.5688 40.5617 18.366 40.7644C18.1633 40.9672 17.8883 41.0811 17.6016 41.0811H17.6005Z" fill="#FED739"/>
<path d="M57.1508 58.2335C56.8641 58.2335 56.5892 58.1195 56.3865 57.9168L55.073 56.6032C54.8761 56.3994 54.7671 56.1263 54.7696 55.8428C54.772 55.5594 54.8857 55.2882 55.0862 55.0878C55.2866 54.8873 55.5578 54.7736 55.8412 54.7712C56.1247 54.7687 56.3978 54.8777 56.6016 55.0746L57.9152 56.3881C58.0663 56.5393 58.1692 56.7319 58.2109 56.9416C58.2526 57.1513 58.2312 57.3686 58.1494 57.5661C58.0676 57.7636 57.9291 57.9325 57.7513 58.0513C57.5736 58.17 57.3646 58.2335 57.1508 58.2335Z" fill="#FED739"/>
<path d="M24.1626 25.2432C23.8759 25.2432 23.6009 25.1292 23.3982 24.9265L22.0847 23.613C21.8878 23.4091 21.7788 23.136 21.7813 22.8525C21.7838 22.5691 21.8975 22.2979 22.0979 22.0975C22.2983 21.8971 22.5695 21.7834 22.8529 21.7809C23.1364 21.7784 23.4095 21.8874 23.6134 22.0843L24.9269 23.3978C25.078 23.549 25.181 23.7416 25.2227 23.9513C25.2643 24.161 25.2429 24.3783 25.1611 24.5758C25.0793 24.7734 24.9408 24.9422 24.7631 25.061C24.5853 25.1798 24.3763 25.2432 24.1626 25.2432Z" fill="#FED739"/>
<path d="M33.9871 47.0951C33.7733 47.0951 33.5643 47.0317 33.3866 46.9129C33.2089 46.7941 33.0703 46.6253 32.9885 46.4277C32.9067 46.2302 32.8853 46.0129 32.927 45.8032C32.9687 45.5935 33.0716 45.4009 33.2228 45.2497L38.919 39.5524V23.7838C38.919 23.4971 39.0329 23.2221 39.2356 23.0193C39.4384 22.8166 39.7134 22.7027 40.0001 22.7027C40.2868 22.7027 40.5618 22.8166 40.7645 23.0193C40.9673 23.2221 41.0812 23.4971 41.0812 23.7838V40C41.0811 40.2867 40.9672 40.5616 40.7644 40.7643L34.7514 46.7784C34.5487 46.9811 34.2738 47.0951 33.9871 47.0951Z" fill="#FED739"/>
</svg>
