<svg width="32" height="31" viewBox="0 0 32 31" fill="none" xmlns="http://www.w3.org/2000/svg">
<g clip-path="url(#clip0)">
<path d="M5.84301 0C2.60624 0 0 2.52479 0 5.66041V25.3396C0 28.4752 2.60624 31 5.84301 31H16.853V18.881H13.545V14.5177H16.853V10.79C16.853 7.86123 18.8076 5.17216 23.31 5.17216C25.133 5.17216 26.481 5.3417 26.481 5.3417L26.375 9.41628C26.375 9.41628 25.0002 9.4037 23.5 9.4037C21.8764 9.4037 21.616 10.1284 21.616 11.3315V14.5177H26.504L26.291 18.881H21.616V31.0001H26.157C29.3938 31.0001 32 28.4753 32 25.3396V5.66045C32 2.52483 29.3938 3.1e-05 26.157 3.1e-05H5.84298L5.84301 0Z" fill="#FED739"/>
</g>
<defs>
<clipPath id="clip0">
<rect width="32" height="31" fill="white"/>
</clipPath>
</defs>
</svg>
