<svg width="32" height="33" viewBox="0 0 32 33" fill="none" xmlns="http://www.w3.org/2000/svg">
<path d="M15.9992 11.1628C13.132 11.1628 10.7922 13.5611 10.7922 16.5C10.7922 19.4388 13.132 21.8372 15.9992 21.8372C18.8664 21.8372 21.2062 19.4388 21.2062 16.5C21.2062 13.5611 18.8664 11.1628 15.9992 11.1628ZM31.6164 16.5C31.6164 14.2898 31.6359 12.0997 31.5148 9.89353C31.3937 7.33103 30.8234 5.05682 28.9953 3.18299C27.1633 1.30516 24.9484 0.724592 22.4484 0.600471C20.2922 0.47635 18.1555 0.496369 16.0031 0.496369C13.8469 0.496369 11.7101 0.47635 9.5578 0.600471C7.0578 0.724592 4.83905 1.30916 3.01093 3.18299C1.1789 5.06082 0.61249 7.33103 0.491396 9.89353C0.370302 12.1037 0.389834 14.2938 0.389834 16.5C0.389834 18.7061 0.370302 20.9003 0.491396 23.1064C0.61249 25.6689 1.1828 27.9431 3.01093 29.817C4.84296 31.6948 7.0578 32.2754 9.5578 32.3995C11.7141 32.5236 13.8508 32.5036 16.0031 32.5036C18.1594 32.5036 20.2961 32.5236 22.4484 32.3995C24.9484 32.2754 27.1672 31.6908 28.9953 29.817C30.8273 27.9391 31.3937 25.6689 31.5148 23.1064C31.6398 20.9003 31.6164 18.7101 31.6164 16.5ZM15.9992 24.712C11.5656 24.712 7.98749 21.0444 7.98749 16.5C7.98749 11.9555 11.5656 8.28797 15.9992 8.28797C20.4328 8.28797 24.0109 11.9555 24.0109 16.5C24.0109 21.0444 20.4328 24.712 15.9992 24.712ZM24.3391 9.86951C23.3039 9.86951 22.468 9.01267 22.468 7.95164C22.468 6.8906 23.3039 6.03377 24.3391 6.03377C25.3742 6.03377 26.2101 6.8906 26.2101 7.95164C26.2105 8.20358 26.1623 8.45312 26.0683 8.68595C25.9744 8.91878 25.8366 9.13033 25.6628 9.30848C25.489 9.48664 25.2826 9.62789 25.0555 9.72416C24.8283 9.82043 24.5849 9.86982 24.3391 9.86951Z" fill="#FED739"/>
</svg>
