<svg width="80" height="86" viewBox="0 0 80 86" fill="none" xmlns="http://www.w3.org/2000/svg">
<g filter="url(#filter0_d)">
<path d="M50.1431 51.7894C50.2875 51.5544 50.4319 51.3237 50.5762 51.0844C57.0694 40.3344 60.3369 30.9306 60.29 23.1375C60.2612 17.7758 58.1113 12.6435 54.3101 8.8621C50.5089 5.08067 45.3655 2.95753 40.0037 2.95662C34.642 2.95571 29.4979 5.07711 25.6954 8.85726C21.8929 12.6374 19.7413 17.769 19.7106 23.1306C19.6631 30.9306 22.9313 40.3356 29.4244 51.0844C29.5688 51.3237 29.7131 51.5544 29.8575 51.7894C16.1875 53.4787 7.125 58.3644 7.125 64.165C7.125 71.4475 21.5625 77.1519 40 77.1519C58.4375 77.1519 72.875 71.4475 72.875 64.165C72.875 58.3644 63.8125 53.4787 50.1431 51.7894ZM21.8981 23.1375C21.8846 20.7513 22.3429 18.386 23.2468 16.1776C24.1506 13.9693 25.4822 11.9614 27.1648 10.2694C28.8475 8.5775 30.848 7.23494 33.0514 6.31896C35.2548 5.40299 37.6176 4.93167 40.0038 4.93212C42.39 4.93258 44.7525 5.40479 46.9556 6.3216C49.1586 7.23842 51.1587 8.58174 52.8407 10.2743C54.5227 11.9669 55.8535 13.9753 56.7565 16.184C57.6595 18.3927 58.117 20.7582 58.1025 23.1444C58.1962 38.6806 43.6712 57.8425 40 62.4375C36.3287 57.8425 21.8031 38.68 21.8981 23.1375ZM40 74.9644C21.6431 74.9644 9.3125 69.38 9.3125 64.165C9.3125 59.54 18.4556 55.2369 31.1462 53.8412C33.6007 57.6735 36.2789 61.3578 39.1669 64.875C39.2694 64.9959 39.3971 65.093 39.5409 65.1596C39.6848 65.2262 39.8415 65.2608 40 65.2608C40.1585 65.2608 40.3152 65.2262 40.459 65.1596C40.6029 65.093 40.7306 64.9959 40.8331 64.875C43.7213 61.3579 46.3997 57.6736 48.8544 53.8412C61.5419 55.2369 70.6881 59.5375 70.6881 64.165C70.6875 69.38 58.3569 74.9644 40 74.9644Z" fill="#FED739"/>
<path d="M31.0586 68.6294C26.2048 68.0081 22.3086 66.9144 20.0911 65.5513C19.9687 65.473 19.832 65.4199 19.6889 65.3951C19.5457 65.3703 19.3991 65.3742 19.2576 65.4067C19.116 65.4392 18.9823 65.4995 18.8643 65.5842C18.7463 65.6688 18.6463 65.7762 18.5702 65.8999C18.4942 66.0236 18.4435 66.1613 18.4212 66.3048C18.3989 66.4483 18.4054 66.5948 18.4403 66.7358C18.4752 66.8768 18.5379 67.0094 18.6246 67.1259C18.7113 67.2424 18.8204 67.3405 18.9454 67.4144C21.4223 68.9369 25.6261 70.1394 30.7811 70.7988C30.8275 70.8048 30.8743 70.8077 30.9211 70.8075C31.1983 70.8062 31.4647 70.6996 31.6663 70.5093C31.868 70.3191 31.9899 70.0594 32.0073 69.7827C32.0248 69.506 31.9366 69.233 31.7604 69.0189C31.5843 68.8048 31.3334 68.6656 31.0586 68.6294Z" fill="#FED739"/>
<path d="M41.8371 69.1519C40.3127 69.1869 38.7252 69.1788 37.1758 69.1219C37.0322 69.1166 36.8889 69.1396 36.7542 69.1897C36.6195 69.2398 36.4959 69.3159 36.3906 69.4137C36.2853 69.5115 36.2003 69.6291 36.1404 69.7598C36.0806 69.8905 36.0471 70.0317 36.0418 70.1753C36.0365 70.3189 36.0595 70.4622 36.1096 70.5969C36.1597 70.7317 36.2358 70.8552 36.3336 70.9605C36.4314 71.0658 36.549 71.1508 36.6797 71.2107C36.8104 71.2705 36.9516 71.3041 37.0952 71.3094C38.0564 71.3444 39.0327 71.3625 40.0002 71.3625C40.6364 71.3625 41.2658 71.355 41.8883 71.34C42.1783 71.3333 42.4538 71.2116 42.6541 71.0018C42.8544 70.792 42.9631 70.5112 42.9564 70.2212C42.9549 70.077 42.9246 69.9345 42.8672 69.8021C42.8098 69.6698 42.7265 69.5503 42.6221 69.4506C42.5178 69.351 42.3946 69.2732 42.2598 69.2219C42.125 69.1706 41.9812 69.1468 41.8371 69.1519Z" fill="#FED739"/>
<path d="M49.2362 23.1375C49.2359 21.3108 48.694 19.5251 47.6789 18.0064C46.6639 16.4876 45.2212 15.304 43.5335 14.6051C41.8457 13.9063 39.9886 13.7236 38.197 14.0802C36.4054 14.4367 34.7598 15.3166 33.4682 16.6084C32.1767 17.9002 31.2972 19.546 30.941 21.3377C30.5848 23.1293 30.7678 24.9864 31.467 26.674C32.1662 28.3616 33.3502 29.804 34.8691 30.8188C36.3881 31.8336 38.1738 32.3751 40.0005 32.375C42.4494 32.372 44.7971 31.3978 46.5285 29.666C48.2599 27.9342 49.2337 25.5863 49.2362 23.1375ZM32.9518 23.1375C32.952 21.7434 33.3657 20.3808 34.1403 19.2218C34.915 18.0628 36.016 17.1595 37.304 16.6262C38.592 16.0929 40.0092 15.9535 41.3765 16.2256C42.7437 16.4977 43.9995 17.1691 44.9852 18.155C45.9709 19.1408 46.6421 20.3968 46.9139 21.7641C47.1858 23.1314 47.0462 24.5486 46.5126 25.8365C45.9791 27.1244 45.0756 28.2252 43.9165 28.9996C42.7574 29.7741 41.3946 30.1875 40.0005 30.1875C38.1315 30.1855 36.3396 29.4421 35.0181 28.1203C33.6966 26.7986 32.9535 25.0065 32.9518 23.1375Z" fill="#FED739"/>
</g>
<defs>
<filter id="filter0_d" x="-4" y="0" width="88" height="88" filterUnits="userSpaceOnUse" color-interpolation-filters="sRGB">
<feFlood flood-opacity="0" result="BackgroundImageFix"/>
<feColorMatrix in="SourceAlpha" type="matrix" values="0 0 0 0 0 0 0 0 0 0 0 0 0 0 0 0 0 0 127 0"/>
<feOffset dy="4"/>
<feGaussianBlur stdDeviation="2"/>
<feColorMatrix type="matrix" values="0 0 0 0 0 0 0 0 0 0 0 0 0 0 0 0 0 0 0.25 0"/>
<feBlend mode="normal" in2="BackgroundImageFix" result="effect1_dropShadow"/>
<feBlend mode="normal" in="SourceGraphic" in2="effect1_dropShadow" result="shape"/>
</filter>
</defs>
</svg>
