<svg width="26" height="20" viewBox="0 0 26 20" fill="none" xmlns="http://www.w3.org/2000/svg">
<path d="M24.1429 0H1.85714C1.3646 0 0.892226 0.210714 0.543944 0.585786C0.195663 0.960859 0 1.46957 0 2V18C0 18.5304 0.195663 19.0391 0.543944 19.4142C0.892226 19.7893 1.3646 20 1.85714 20H24.1429C24.6354 20 25.1078 19.7893 25.4561 19.4142C25.8043 19.0391 26 18.5304 26 18V2C26 1.46957 25.8043 0.960859 25.4561 0.585786C25.1078 0.210714 24.6354 0 24.1429 0ZM22.1 2L13 8.78L3.9 2H22.1ZM1.85714 18V2.91L12.4707 10.82C12.6262 10.9361 12.8108 10.9984 13 10.9984C13.1892 10.9984 13.3738 10.9361 13.5293 10.82L24.1429 2.91V18H1.85714Z" fill="white"/>
</svg>
