<svg width="80" height="80" viewBox="0 0 80 80" fill="none" xmlns="http://www.w3.org/2000/svg">
    <path d="M76.25 68.75H75V36.5625C74.9981 35.01 73.74 33.7519 72.1875 33.75H71.25V36.25H72.1875C72.3602 36.25 72.5 36.3898 72.5 36.5625V68.75H52.5C52.3059 68.75 52.1145 68.7952 51.9409 68.882L49.7048 70H30.2952L28.0591 68.882C27.8855 68.7952 27.6941 68.75 27.5 68.75H7.5V36.5625C7.5 36.3898 7.63984 36.25 7.8125 36.25H8.75V33.75H7.8125C6.26 33.7519 5.00187 35.01 5 36.5625V68.75H3.75C3.05969 68.75 2.5 69.3097 2.5 70V73.125C2.50281 75.5402 4.45984 77.4972 6.875 77.5H73.125C75.5402 77.4972 77.4972 75.5402 77.5 73.125V70C77.5 69.3097 76.9403 68.75 76.25 68.75ZM75 73.125C74.9989 74.16 74.16 74.9989 73.125 75H6.875C5.84 74.9989 5.00109 74.16 5 73.125V71.25H27.2048L29.4409 72.368C29.6145 72.4548 29.8059 72.5 30 72.5H50C50.1941 72.5 50.3855 72.4548 50.5591 72.368L52.7952 71.25H75V73.125Z" fill="#FED739" fill-opacity="0.82"/>
    <path d="M11.25 31.25V65C11.25 65.6903 11.8097 66.25 12.5 66.25H67.5C68.1903 66.25 68.75 65.6903 68.75 65V50H66.25V63.75H13.75V32.5H26.25V30H12.5C11.8097 30 11.25 30.5597 11.25 31.25Z" fill="#FED739" fill-opacity="0.82"/>
    <path d="M68.75 47.4384V31.25C68.75 30.5597 68.1903 30 67.5 30H51.25V32.5H66.25V47.4384H68.75Z" fill="#FED739" fill-opacity="0.82"/>
    <path d="M30 36.25H36.5625C38.4852 36.2497 40.2886 35.318 41.4012 33.75H45V40.7306C44.9981 41.3888 44.6531 41.9983 44.0897 42.3384L40.9647 44.2134C40.3711 44.5705 39.6289 44.5705 39.0353 44.2134L35.9103 42.3384C35.3469 41.9983 35.0019 41.3888 35 40.7306V38.75H32.5V40.7306C32.5044 42.2662 33.3095 43.6883 34.6241 44.4822L35.923 45.2616L35.1605 49.0741L27.8387 51.8197C26.135 52.4647 25.0059 54.0939 25 55.9156V58.75H18.75V61.25H61.25V58.75H55V55.9156C54.9942 54.0937 53.8652 52.4644 52.1613 51.8192L44.8395 49.0736L44.077 45.2611L45.3759 44.4817C46.6903 43.688 47.4955 42.2661 47.5 40.7306V33.75C48.1903 33.75 48.75 33.1903 48.75 32.5V29.6875C48.7463 26.4098 46.0902 23.7538 42.8125 23.75H34.6875C31.4098 23.7538 28.7537 26.4098 28.75 29.6875V35C28.75 35.6903 29.3097 36.25 30 36.25ZM40 46.982C40.6187 46.982 41.2303 46.8503 41.7944 46.5959L42.36 49.4241L40 50.9977L37.6406 49.4242L38.2063 46.5961C38.77 46.8503 39.3816 46.9819 40 46.982ZM52.5 55.9156V58.75H27.5V55.9156C27.5025 55.1348 27.9866 54.4366 28.7167 54.16L36.0894 51.3944L39.3066 53.5392C39.7264 53.8192 40.2736 53.8192 40.6934 53.5392L43.9106 51.3944L51.2833 54.16C52.0134 54.4364 52.4975 55.1348 52.5 55.9156ZM46.25 29.6875V31.25H42.5V26.25H42.8125C44.7102 26.2522 46.2478 27.7898 46.25 29.6875ZM31.25 29.6875C31.2522 27.7898 32.7898 26.2522 34.6875 26.25H40V30.3125C39.9978 32.2102 38.4602 33.7478 36.5625 33.75H31.25V29.6875Z" fill="#FED739" fill-opacity="0.82"/>
    <path d="M52.5 35C51.8097 35 51.25 35.5597 51.25 36.25V46.25C51.25 46.9403 51.8097 47.5 52.5 47.5H62.5C63.1903 47.5 63.75 46.9403 63.75 46.25V36.25C63.75 35.5597 63.1903 35 62.5 35H52.5ZM61.25 45H53.75V37.5H61.25V45Z" fill="#FED739" fill-opacity="0.82"/>
    <path d="M27.6781 44.3931L29.8219 43.1069L26.0719 36.8569C25.8459 36.4803 25.4391 36.25 25 36.25H16.25V38.75H24.2923L27.6781 44.3931Z" fill="#FED739" fill-opacity="0.82"/>
    <path d="M16.25 41.25H23.75V43.75H16.25V41.25Z" fill="#FED739" fill-opacity="0.82"/>
    <path d="M30 21.25H50C50.6903 21.25 51.25 20.6903 51.25 20V3.75C51.25 3.05969 50.6903 2.5 50 2.5H30C29.3097 2.5 28.75 3.05969 28.75 3.75V20C28.75 20.6903 29.3097 21.25 30 21.25ZM38.75 11.25V10C38.75 9.30969 39.3097 8.75 40 8.75C40.6903 8.75 41.25 9.30969 41.25 10V11.25C41.25 11.9403 40.6903 12.5 40 12.5C39.3097 12.5 38.75 11.9403 38.75 11.25ZM38.125 15H41.875C42.91 15.0011 43.7489 15.84 43.75 16.875V18.75H36.25V16.875C36.2511 15.84 37.09 15.0011 38.125 15ZM31.25 5H48.75V18.75H46.25V16.875C46.248 15.0561 45.1225 13.4277 43.4219 12.7827C43.6386 12.3008 43.7505 11.7784 43.75 11.25V10C43.75 7.92891 42.0711 6.25 40 6.25C37.9289 6.25 36.25 7.92891 36.25 10V11.25C36.2495 11.7784 36.3614 12.3008 36.5781 12.7827C34.8775 13.4277 33.752 15.0561 33.75 16.875V18.75H31.25V5Z" fill="#FED739" fill-opacity="0.82"/>
    <path d="M76.25 7.5H56.25C55.5597 7.5 55 8.05969 55 8.75V25C55 25.6903 55.5597 26.25 56.25 26.25H76.25C76.9403 26.25 77.5 25.6903 77.5 25V8.75C77.5 8.05969 76.9403 7.5 76.25 7.5ZM65 16.25V15C65 14.3097 65.5597 13.75 66.25 13.75C66.9403 13.75 67.5 14.3097 67.5 15V16.25C67.5 16.9403 66.9403 17.5 66.25 17.5C65.5597 17.5 65 16.9403 65 16.25ZM64.375 20H68.125C69.16 20.0011 69.9989 20.84 70 21.875V23.75H62.5V21.875C62.5011 20.84 63.34 20.0011 64.375 20ZM75 23.75H72.5V21.875C72.498 20.0561 71.3725 18.4277 69.6719 17.7827C69.8886 17.3008 70.0005 16.7784 70 16.25V15C70 12.9289 68.3211 11.25 66.25 11.25C64.1789 11.25 62.5 12.9289 62.5 15V16.25C62.4995 16.7784 62.6114 17.3008 62.8281 17.7827C61.1275 18.4277 60.002 20.0561 60 21.875V23.75H57.5V10H75V23.75Z" fill="#FED739" fill-opacity="0.82"/>
    <path d="M3.75 26.25H23.75C24.4403 26.25 25 25.6903 25 25V8.75C25 8.05969 24.4403 7.5 23.75 7.5H3.75C3.05969 7.5 2.5 8.05969 2.5 8.75V12.5H5V10H22.5V23.75H20V21.875C19.998 20.0561 18.8725 18.4277 17.1719 17.7827C17.3886 17.3008 17.5005 16.7784 17.5 16.25V15C17.5 12.9289 15.8211 11.25 13.75 11.25C11.6789 11.25 10 12.9289 10 15V16.25C9.99953 16.7784 10.1114 17.3008 10.3281 17.7827C8.6275 18.4277 7.50203 20.0561 7.5 21.875V23.75H5V14.8738H2.5V25C2.5 25.6903 3.05969 26.25 3.75 26.25ZM12.5 15C12.5 14.3097 13.0597 13.75 13.75 13.75C14.4403 13.75 15 14.3097 15 15V16.25C15 16.9403 14.4403 17.5 13.75 17.5C13.0597 17.5 12.5 16.9403 12.5 16.25V15ZM10 21.875C10.0011 20.84 10.84 20.0011 11.875 20H15.625C16.66 20.0011 17.4989 20.84 17.5 21.875V23.75H10V21.875Z" fill="#FED739" fill-opacity="0.82"/>
</svg>
