<svg width="32" height="32" viewBox="0 0 32 32" fill="none" xmlns="http://www.w3.org/2000/svg">
<g clip-path="url(#clip0)">
<path d="M20.91 0H11.087C2.12305 0 -0.00195312 2.125 -0.00195312 11.089V20.912C-0.00195312 29.876 2.12305 32.001 11.087 32.001H20.91C29.874 32.001 31.999 29.876 31.999 20.912V11.089C31.999 2.125 29.853 0 20.91 0ZM25.832 22.828H23.509C22.629 22.828 22.358 22.13 20.775 20.526C19.4 19.193 18.791 19.016 18.452 19.016C17.973 19.016 17.837 19.151 17.837 19.808V21.907C17.837 22.47 17.66 22.808 16.17 22.808C13.706 22.808 10.972 21.318 9.05505 18.542C6.16405 14.474 5.37305 11.427 5.37305 10.797C5.37305 10.458 5.50805 10.141 6.15905 10.141H8.48705C9.07605 10.141 9.30005 10.412 9.52905 11.042C10.68 14.365 12.597 17.276 13.388 17.276C13.68 17.276 13.815 17.141 13.815 16.396V12.964C13.726 11.381 12.893 11.245 12.893 10.683C12.893 10.412 13.117 10.141 13.476 10.141H17.137C17.632 10.141 17.814 10.412 17.814 10.995V15.625C17.814 16.125 18.038 16.302 18.173 16.302C18.465 16.302 18.715 16.125 19.256 15.583C20.928 13.708 22.126 10.817 22.126 10.817C22.282 10.478 22.553 10.161 23.142 10.161H25.47C26.168 10.161 26.324 10.52 26.168 11.02C25.876 12.374 23.027 16.395 23.027 16.395C22.782 16.801 22.688 16.978 23.027 17.431C23.277 17.77 24.09 18.473 24.631 19.103C25.626 20.233 26.391 21.181 26.595 21.837C26.824 22.488 26.486 22.827 25.829 22.827L25.832 22.828Z" fill="#FED739"/>
</g>
<defs>
<clipPath id="clip0">
<rect width="32" height="32" fill="white"/>
</clipPath>
</defs>
</svg>
