<svg width="95" height="95" viewBox="0 0 95 95" fill="none" xmlns="http://www.w3.org/2000/svg">
<g clip-path="url(#clip0)">
<path d="M69.6273 54.4446C63.5261 54.4446 58.0661 58.3094 56.0406 64.0614C55.5004 65.5957 55.2266 67.2051 55.2266 68.8453C55.2266 76.7859 61.6869 83.2459 69.6273 83.2459C77.5677 83.2459 84.0278 76.7857 84.0278 68.8453C84.0278 60.9049 77.5679 54.4446 69.6273 54.4446V54.4446ZM69.6273 80.4689C63.2179 80.4689 58.0035 75.2545 58.0035 68.8453C58.0035 67.5202 58.2244 66.2209 58.66 64.9839C60.2947 60.341 64.7023 57.2215 69.6273 57.2215C76.0365 57.2215 81.2509 62.4359 81.2509 68.8453C81.2509 75.2545 76.0365 80.4689 69.6273 80.4689Z" fill="#FED739"/>
<path d="M93.4744 86.7606L86.2437 79.3524C88.1676 76.3111 89.283 72.7094 89.283 68.8515C89.283 66.9002 88.9974 64.9895 88.4477 63.1624L91.2909 62.8214C91.9021 62.7481 92.3921 62.281 92.4943 61.6736L94.7294 48.4128C94.8308 47.8117 94.5283 47.2146 93.9837 46.941L86.6884 43.2752C86.4818 41.1225 86.0947 38.9747 85.5341 36.8707L91.1651 30.8639C91.5834 30.4176 91.6605 29.7496 91.3546 29.2196L84.6631 17.6238C84.3573 17.0936 83.7408 16.8261 83.145 16.966L75.0845 18.8521C74.2742 18.0548 73.42 17.2847 72.5421 16.5601C71.7782 15.9289 70.979 15.3184 70.1667 14.7447C70.1387 14.7249 70.1104 14.705 70.0825 14.6852L70.5366 6.46399C70.5705 5.85288 70.2002 5.29175 69.6256 5.08237L57.0497 0.50262C56.4748 0.293238 55.831 0.485033 55.464 0.975072L50.5016 7.60402C48.3412 7.42981 46.157 7.43666 43.9886 7.62327L39.0587 1.03894C38.692 0.549088 38.0487 0.356923 37.4731 0.56649L24.897 5.14605C24.3224 5.35543 23.9523 5.91656 23.986 6.52767L24.4429 14.7978C22.6747 16.0552 21.0056 17.4644 19.4655 19.0001L11.4592 17.1267C10.8635 16.9866 10.247 17.2545 9.94114 17.7845L3.24943 29.3801C2.94359 29.9101 3.02061 30.5779 3.439 31.0244L9.10805 37.0719C8.56025 39.1746 8.18536 41.3251 7.98987 43.4844L0.763504 47.127C0.220703 47.4009 -0.0812444 47.9962 0.019096 48.5961L2.23418 61.8541C2.33581 62.4623 2.82604 62.9307 3.43789 63.004L11.6656 63.9909C12.5972 65.9562 13.6919 67.8457 14.9296 69.6252L11.6954 77.1873C11.4549 77.75 11.6106 78.404 12.0792 78.7972L22.3313 87.4041C22.8003 87.7979 23.471 87.8379 23.9827 87.5028L30.9238 82.9647C32.9015 83.8694 34.9522 84.612 37.0379 85.1783L39.4207 93.0571C39.5978 93.6428 40.1375 94.0436 40.7492 94.0436H54.1324C54.7441 94.0436 55.2837 93.643 55.4609 93.0571L57.8613 85.1209C58.017 85.0778 58.171 85.0298 58.3265 84.9848C61.5219 87.2268 65.41 88.5445 69.6004 88.5445C73.4224 88.5445 76.9926 87.4478 80.0156 85.5541L87.202 93.0521C88.8504 94.7969 91.841 94.8089 93.4994 93.0733C95.2272 91.409 95.2127 88.4125 93.4744 86.7606V86.7606ZM52.6932 68.8517C52.6932 66.9236 53.0146 65.0328 53.6483 63.2322C56.0261 56.4757 62.4366 51.9365 69.6004 51.9365C72.9886 51.9365 76.2569 52.9351 79.0524 54.8246C79.6874 55.2539 80.5504 55.0867 80.9794 54.4512C81.4083 53.8158 81.2413 52.9525 80.6062 52.5232C78.8687 51.3489 76.9739 50.4733 74.9858 49.9088C75.0815 48.968 75.133 48.0183 75.133 47.0713C75.133 31.8088 62.7221 19.3918 47.467 19.3918C44.2683 19.3918 41.1328 19.9335 38.1474 21.0021C37.4257 21.2603 37.0499 22.0551 37.3082 22.7773C37.5664 23.4995 38.3608 23.8755 39.0824 23.617C41.7668 22.6562 44.5878 22.1691 47.4672 22.1691C61.1916 22.1691 72.3573 33.3404 72.3573 47.0715C72.3573 47.8283 72.319 48.5866 72.2511 49.3399C71.3776 49.2222 70.4929 49.1596 69.6004 49.1596C67.513 49.1596 65.4805 49.4908 63.5629 50.1106C63.7497 49.1146 63.8447 48.0993 63.8447 47.0715C63.8447 38.0366 56.4978 30.686 47.4672 30.686C38.4365 30.686 31.0896 38.0366 31.0896 47.0715C31.0896 50.5805 32.1823 53.9267 34.2496 56.7484C34.7052 57.371 35.5776 57.498 36.1894 57.0474C36.8076 56.5942 36.9416 55.7252 36.4884 55.1067C34.7724 52.7643 33.8655 49.9858 33.8655 47.0715C33.8655 39.5678 39.9672 33.4632 47.4672 33.4632C54.9671 33.4632 61.0688 39.5678 61.0688 47.0715C61.0688 48.5872 60.8208 50.0689 60.3355 51.485C56.8388 53.3539 53.9325 56.2604 52.0806 59.8747C50.6049 60.4073 49.0559 60.6799 47.4673 60.6799C45.1699 60.6799 42.8998 60.0965 40.9028 58.9933C40.2317 58.6225 39.3874 58.866 39.0169 59.5376C38.6465 60.2089 38.8899 61.0538 39.5608 61.4244C41.9677 62.7542 44.7017 63.4572 47.4673 63.4572C48.585 63.4572 49.6865 63.3428 50.7647 63.1221C50.2026 64.9732 49.9175 66.8965 49.9175 68.852C49.9175 69.8643 49.9946 70.859 50.1425 71.8306C49.2557 71.9252 48.3608 71.9737 47.4673 71.9737C33.7429 71.9737 22.5772 60.8024 22.5772 47.0713C22.5772 38.7601 26.6997 31.027 33.605 26.3853C34.2413 25.9574 34.4105 25.0949 33.983 24.4583C33.5554 23.8218 32.6931 23.6524 32.0569 24.08C24.3829 29.2385 19.8013 37.8333 19.8013 47.0713C19.8013 62.3338 32.2123 74.7508 47.4673 74.7508C48.5674 74.7508 49.6704 74.6846 50.7604 74.5555C51.7344 77.7698 53.5093 80.6385 55.8519 82.9291C55.6558 83.0984 55.5061 83.32 55.4285 83.5762L53.1027 91.2663H41.7798L39.4697 83.6288C39.3283 83.1609 38.9514 82.8021 38.4776 82.6837C36.0576 82.0788 33.6813 81.2187 31.4147 80.1272C30.9769 79.9165 30.4608 79.95 30.0535 80.2161L23.3268 84.614L14.6529 77.3321L17.7881 70.0015C17.9802 69.552 17.9221 69.0346 17.6348 68.6391C16.165 66.6149 14.8971 64.4265 13.8663 62.1348C13.6665 61.6907 13.2489 61.3837 12.7657 61.3258L4.80063 60.3703L2.92564 49.147L9.93558 45.6136C10.3725 45.3931 10.6613 44.959 10.6955 44.4704C10.8705 41.973 11.3046 39.4812 11.9863 37.0645C12.1186 36.5959 11.9959 36.0926 11.663 35.7373L6.16837 29.8763L11.83 20.0655L19.5927 21.8818C20.069 21.9938 20.5687 21.8457 20.9084 21.493C22.6505 19.6839 24.5832 18.0518 26.6526 16.6426C27.0549 16.3686 27.2845 15.904 27.2575 15.418L26.8146 7.40297L37.4548 3.52838L42.2343 9.91222C42.5275 10.3038 43.0052 10.5126 43.4919 10.4606C45.992 10.1944 48.5211 10.187 51.0087 10.4382C51.4923 10.4867 51.9671 10.2786 52.2589 9.88908L57.0686 3.46488L67.7085 7.33966L67.2681 15.3114C67.2411 15.8005 67.4734 16.2675 67.8798 16.5406C69.9614 17.9408 71.9047 19.558 73.6549 21.351C73.9943 21.6985 74.4906 21.8435 74.9636 21.7328L82.7744 19.905L88.4359 29.7158L82.9762 35.5399C82.6415 35.8971 82.5195 36.404 82.6548 36.8746C83.352 39.2948 83.8006 41.7836 83.9881 44.2722C84.0248 44.7585 84.3136 45.1898 84.7492 45.4087L91.8221 48.9624L89.9299 60.1876L87.4236 60.4882C86.9174 59.4119 86.3135 58.3755 85.6095 57.3925C85.1628 56.769 84.2956 56.6264 83.6727 57.0726C83.0497 57.5193 82.9066 58.3868 83.3529 59.0104C85.4166 61.8912 86.5072 65.2942 86.5072 68.8513C86.5072 78.1785 78.9228 85.7666 69.6002 85.7666C60.2776 85.7666 52.6932 78.1787 52.6932 68.8517V68.8517ZM84.5744 81.6173L86.2273 83.3107L83.8719 85.5648L82.2783 83.902C83.1043 83.2042 83.8726 82.44 84.5744 81.6173V81.6173ZM91.5329 91.1126C90.9173 91.7561 89.8143 91.7558 89.194 91.1178L85.793 87.5694L88.1667 85.2979L91.497 88.71C92.1723 89.3276 92.1931 90.4776 91.5329 91.1126Z" fill="#FED739"/>
</g>
<defs>
<clipPath id="clip0">
<rect width="94.7867" height="94.7867" fill="white"/>
</clipPath>
</defs>
</svg>
