<svg width="95" height="95" viewBox="0 0 95 95" fill="none" xmlns="http://www.w3.org/2000/svg">
<g clip-path="url(#clip0)">
<path d="M26.6588 53.3175C41.3585 53.3175 53.3175 41.3585 53.3175 26.6588C53.3175 11.959 41.3585 0 26.6588 0C11.959 0 0 11.959 0 26.6588C0 41.3585 11.959 53.3175 26.6588 53.3175ZM26.6588 3.70261C39.3169 3.70261 49.6149 14.0007 49.6149 26.6588C49.6149 39.3169 39.3169 49.6149 26.6588 49.6149C14.0007 49.6149 3.70261 39.3169 3.70261 26.6588C3.70261 14.0007 14.0007 3.70261 26.6588 3.70261Z" fill="#FED739"/>
<path d="M20.8927 38.782C21.1532 38.9085 21.4286 38.9685 21.7 38.9685C22.3867 38.9685 23.0465 38.5847 23.3668 37.9254L33.5534 16.9491C34.0001 16.0293 33.6165 14.9217 32.6968 14.475C31.7769 14.0283 30.6694 14.4119 30.2227 15.3316L20.0361 36.308C19.5894 37.2277 19.9728 38.3353 20.8927 38.782V38.782Z" fill="#FED739"/>
<path d="M17.7886 23.5502C21.0557 23.5502 23.7137 20.8923 23.7137 17.6251C23.7137 14.358 21.0557 11.7 17.7886 11.7C14.5214 11.7 11.8633 14.3578 11.8633 17.625C11.8633 20.8921 14.5214 23.5502 17.7886 23.5502V23.5502ZM17.7886 15.4025C19.0141 15.4025 20.011 16.3996 20.011 17.625C20.011 18.8503 19.0139 19.8474 17.7886 19.8474C16.5632 19.8474 15.5661 18.8503 15.5661 17.625C15.5661 16.3996 16.563 15.4025 17.7886 15.4025Z" fill="#FED739"/>
<path d="M29.9316 35.6926C29.9316 38.9598 32.5896 41.6177 35.8567 41.6177C39.1239 41.6177 41.7818 38.9598 41.7818 35.6926C41.7818 32.4254 39.1239 29.7675 35.8567 29.7675C32.5896 29.7675 29.9316 32.4254 29.9316 35.6926ZM35.8567 33.4701C37.0823 33.4701 38.0792 34.4672 38.0792 35.6926C38.0792 36.918 37.0821 37.9151 35.8567 37.9151C34.6314 37.9151 33.6342 36.918 33.6342 35.6926C33.6342 34.4672 34.6312 33.4701 35.8567 33.4701Z" fill="#FED739"/>
<path d="M92.9354 91.0841H87.3815V70.7327C87.3815 69.7102 86.5527 68.8814 85.5302 68.8814C84.5077 68.8814 83.6789 69.7102 83.6789 70.7327V91.0841H68.128V37.7525C68.128 36.73 67.2991 35.9012 66.2767 35.9012H63.3409L75.9034 23.3386L88.466 35.9012H85.5302C84.5077 35.9012 83.6789 36.73 83.6789 37.7525V54.071C83.6789 55.0935 84.5077 55.9223 85.5302 55.9223C86.5527 55.9223 87.3815 55.0935 87.3815 54.071V39.6038H92.9354C93.6841 39.6038 94.3593 39.1526 94.6458 38.461C94.9324 37.7694 94.774 36.9729 94.2447 36.4434L77.2127 19.4115C76.4897 18.6885 75.3175 18.6885 74.5944 19.4115L57.5624 36.4434C57.0329 36.9729 56.8746 37.7692 57.1612 38.461C57.4478 39.1528 58.1228 39.6038 58.8716 39.6038H64.4255V91.0841H58.8716V58.7789C58.8716 57.7564 58.0428 56.9276 57.0203 56.9276H37.7666C36.7441 56.9276 35.9153 57.7564 35.9153 58.7789V91.0841H30.3614V71.09C30.3614 70.0675 29.5325 69.2387 28.5101 69.2387H9.25652C8.23404 69.2387 7.40521 70.0675 7.40521 71.09V91.0841H1.8513C0.828829 91.0841 0 91.9129 0 92.9354C0 93.9579 0.828829 94.7867 1.8513 94.7867H92.9354C93.9579 94.7867 94.7867 93.9579 94.7867 92.9354C94.7867 91.9129 93.9579 91.0841 92.9354 91.0841ZM11.1078 91.0841V72.9413H26.6588V91.0841H11.1078ZM39.6179 91.0841V60.6302H55.1688V91.0841H39.6179Z" fill="#FED739"/>
<path d="M85.5369 60.5506C85.05 60.5506 84.5723 60.7487 84.228 61.093C83.8836 61.4373 83.6855 61.915 83.6855 62.4019C83.6855 62.8888 83.8836 63.3664 84.228 63.7107C84.5723 64.0551 85.05 64.2532 85.5369 64.2532C86.0237 64.2532 86.5014 64.0551 86.8457 63.7107C87.1901 63.3664 87.3882 62.8888 87.3882 62.4019C87.3882 61.915 87.1901 61.4373 86.8457 61.093C86.5014 60.7487 86.0237 60.5506 85.5369 60.5506Z" fill="#FED739"/>
</g>
<defs>
<clipPath id="clip0">
<rect width="94.7867" height="94.7867" fill="white"/>
</clipPath>
</defs>
</svg>
