<svg width="95" height="95" viewBox="0 0 95 95" fill="none" xmlns="http://www.w3.org/2000/svg">
<g clip-path="url(#clip0)">
<path d="M74.4225 50.4334V44.061C74.4225 41.6492 72.8766 39.5924 70.7239 38.827L70.7771 18.111C70.7784 17.6173 70.5825 17.1437 70.2328 16.7951L53.9275 0.540208C53.5806 0.194386 53.1105 0 52.6205 0H16.662C13.5996 0 11.1081 2.49147 11.1081 5.55389V7.40537H9.25666C6.19425 7.40537 3.70278 9.89684 3.70278 12.9593L3.70315 31.42C1.54805 32.1842 0 34.2421 0 36.6558V84.7895C0 87.852 2.49147 90.3434 5.55389 90.3434H59.2561C62.9691 93.1322 67.5805 94.7867 72.5712 94.7867C84.8208 94.7867 94.7867 84.8208 94.7867 72.5712C94.7867 60.945 85.8092 51.3774 74.4225 50.4334V50.4334ZM54.4718 6.31107L64.4464 16.2551H55.9667C55.1423 16.2551 54.4716 15.5844 54.4716 14.76V6.31107H54.4718ZM9.25666 11.1081H11.1081L11.1083 31.102H7.40574L7.40537 12.9594C7.40537 11.9386 8.23586 11.1081 9.25666 11.1081V11.1081ZM3.70259 84.7895V36.6558C3.70259 35.635 4.53308 34.8046 5.55389 34.8046H24.0668C25.0877 34.8046 25.9181 35.635 25.9181 36.6558V40.3586C25.9181 41.3811 26.747 42.2099 27.7694 42.2099H47.6353C48.6578 42.2099 49.4866 41.3811 49.4866 40.3586C49.4866 39.3362 48.6578 38.5073 47.6353 38.5073H29.6207V36.6558C29.6207 35.9935 29.5037 35.3581 29.2901 34.7686H55.9669C56.9894 34.7686 57.8182 33.9398 57.8182 32.9173C57.8182 31.8949 56.9894 31.066 55.9669 31.066H24.0668C23.9428 31.066 23.8217 31.0788 23.7045 31.102H14.8111L14.8107 5.55389C14.8107 4.53308 15.6412 3.70259 16.662 3.70259H50.7692V14.76C50.7692 17.626 53.1009 19.9577 55.9669 19.9577H67.0697L67.0221 38.5073H64.2972C63.2747 38.5073 62.4459 39.3362 62.4459 40.3586C62.4459 41.3811 63.2747 42.2099 64.2972 42.2099H68.8686C69.8894 42.2099 70.7199 43.0404 70.7199 44.0612V50.4336C59.3331 51.3775 50.3556 60.945 50.3556 72.5714C50.3556 77.9061 52.2462 82.807 55.3919 86.641H5.55389C4.53308 86.6408 3.70259 85.8103 3.70259 84.7895V84.7895ZM72.5712 91.0841C62.3631 91.0841 54.0582 82.7792 54.0582 72.5712C54.0582 62.3631 62.3631 54.0582 72.5712 54.0582C82.7794 54.0582 91.0841 62.3631 91.0841 72.5712C91.0841 82.7792 82.7794 91.0841 72.5712 91.0841Z" fill="#FED739"/>
<path d="M20.365 12.5522H43.3637C44.3862 12.5522 45.215 11.7234 45.215 10.7009C45.215 9.67841 44.3862 8.84958 43.3637 8.84958H20.365C19.3425 8.84958 18.5137 9.67841 18.5137 10.7009C18.5137 11.7234 19.3425 12.5522 20.365 12.5522Z" fill="#FED739"/>
<path d="M20.365 19.9578H43.3637C44.3862 19.9578 45.215 19.129 45.215 18.1065C45.215 17.084 44.3862 16.2552 43.3637 16.2552H20.365C19.3425 16.2552 18.5137 17.084 18.5137 18.1065C18.5137 19.129 19.3425 19.9578 20.365 19.9578Z" fill="#FED739"/>
<path d="M55.967 23.6606H20.365C19.3425 23.6606 18.5137 24.4894 18.5137 25.5119C18.5137 26.5344 19.3425 27.3632 20.365 27.3632H55.967C56.9895 27.3632 57.8183 26.5344 57.8183 25.5119C57.8183 24.4894 56.9895 23.6606 55.967 23.6606Z" fill="#FED739"/>
<path d="M79.4869 62.4994C78.0035 62.4994 76.6089 63.0772 75.5599 64.1259L70.4503 69.2355L69.5821 68.3673C68.5331 67.3183 67.1386 66.7407 65.6551 66.7407C64.1717 66.7407 62.7771 67.3185 61.7281 68.3673C60.6792 69.4162 60.1016 70.8108 60.1016 72.2943C60.1016 73.7777 60.6794 75.1723 61.7281 76.2212L66.5234 81.0163C67.5723 82.0653 68.9669 82.643 70.4503 82.643C71.9338 82.643 73.3284 82.0653 74.3773 81.0165L83.4139 71.9799C84.4629 70.931 85.0405 69.5364 85.0405 68.0529C85.0405 66.5695 84.4627 65.1749 83.4139 64.1259C82.365 63.0772 80.9704 62.4994 79.4869 62.4994ZM80.7958 69.3618L71.7592 78.3984C71.4097 78.7481 70.9448 78.9404 70.4505 78.9404C69.9561 78.9404 69.4914 78.7479 69.1418 78.3984L64.3466 73.6031C63.625 72.8815 63.625 71.7072 64.3466 70.9856C64.6961 70.6359 65.161 70.4435 65.6553 70.4435C66.1496 70.4435 66.6144 70.6361 66.964 70.9856L69.1413 73.1629C69.8642 73.8858 71.0365 73.8858 71.7596 73.1629L78.1782 66.7442C78.5278 66.3945 78.9926 66.2022 79.4869 66.2022C79.9812 66.2022 80.4461 66.3947 80.7958 66.7442C81.1453 67.0938 81.3379 67.5584 81.3379 68.0529C81.3379 68.5474 81.1453 69.0123 80.7958 69.3618V69.3618Z" fill="#FED739"/>
<path d="M27.7654 79.2353C26.7429 79.2353 25.9141 80.0641 25.9141 81.0866C25.9141 82.1091 26.7429 82.9379 27.7654 82.9379H27.7667C28.7891 82.9379 29.6174 82.1091 29.6174 81.0866C29.6174 80.0641 28.7878 79.2353 27.7654 79.2353Z" fill="#FED739"/>
<path d="M19.4392 79.2353H9.25755C8.23508 79.2353 7.40625 80.0641 7.40625 81.0866C7.40625 82.1091 8.23508 82.9379 9.25755 82.9379H19.439C20.4615 82.9379 21.2903 82.1091 21.2903 81.0866C21.2903 80.0641 20.4616 79.2353 19.4392 79.2353V79.2353Z" fill="#FED739"/>
<path d="M55.9651 42.2099C56.9876 42.2099 57.8165 41.3811 57.8165 40.3586C57.8165 39.3362 56.9876 38.5073 55.9651 38.5073H55.9638C54.9414 38.5073 54.1133 39.3362 54.1133 40.3586C54.1133 41.3811 54.9427 42.2099 55.9651 42.2099Z" fill="#FED739"/>
</g>
<defs>
<clipPath id="clip0">
<rect width="94.7867" height="94.7867" fill="white"/>
</clipPath>
</defs>
</svg>
