<svg width="95" height="95" viewBox="0 0 95 95" fill="none" xmlns="http://www.w3.org/2000/svg">
<g clip-path="url(#clip0)">
<path d="M73.0582 92.7292C71.864 92.7292 70.67 92.3492 69.629 91.5895L47.3934 75.3599L25.1578 91.5895C23.0792 93.1065 20.3908 93.1092 18.3092 91.597C16.2272 90.0845 15.3992 87.527 16.1996 85.0813L24.7639 58.9187L2.42018 42.7594C0.337472 41.2532 -0.496832 38.6997 0.294711 36.2544C1.08625 33.809 3.25874 32.2287 5.82903 32.2287H33.4072L41.8579 6.0854C42.6489 3.63858 44.8216 2.05753 47.393 2.05753C49.9646 2.05753 52.1371 3.63858 52.9281 6.0854L61.3788 32.2287H67.9404C68.9626 32.2287 69.7915 33.0575 69.7915 34.0798C69.7915 35.1022 68.9626 35.931 67.9404 35.931H60.0321C59.2291 35.931 58.5177 35.4132 58.2706 34.6493L49.4056 7.22403C48.9665 5.8653 47.7543 5.7596 47.3934 5.7596C47.0324 5.7596 45.8203 5.86511 45.3812 7.22403L36.516 34.6491C36.2688 35.413 35.5574 35.9308 34.7544 35.9308H5.82922C4.40181 35.9308 3.92829 37.0509 3.81723 37.3943C3.70597 37.7375 3.4333 38.9228 4.58989 39.7591L28.0283 56.7099C28.6805 57.1816 28.9532 58.0209 28.7029 58.7858L19.7184 86.2325C19.274 87.5905 20.1931 88.389 20.4855 88.6014C20.7775 88.8137 21.8209 89.4412 22.9753 88.5986L46.3023 71.5725C46.9524 71.098 47.8349 71.098 48.485 71.5725L71.812 88.5986C72.9664 89.441 74.0095 88.8137 74.3018 88.6012C74.5941 88.3889 75.5133 87.5905 75.0689 86.2323L66.0844 58.7856C65.834 58.0207 66.1066 57.1814 66.759 56.7097L90.1974 39.7589C91.354 38.9224 91.0811 37.7373 90.9701 37.3941C90.8588 37.0507 90.3855 35.9306 88.9581 35.9306H84.6018C83.5796 35.9306 82.7507 35.1019 82.7507 34.0795C82.7507 33.0571 83.5796 32.2283 84.6018 32.2283H88.9581C91.5286 32.2283 93.7009 33.8085 94.4924 36.254C95.284 38.6995 94.4498 41.2528 92.3671 42.7591L70.0234 58.9181L78.5877 85.0807C79.3881 87.5264 78.5603 90.0839 76.4781 91.5965C75.4385 92.3518 74.2483 92.7292 73.0582 92.7292V92.7292Z" fill="#FED739"/>
<path d="M47.3934 64.5702C40.2485 64.5702 34.4355 58.7573 34.4355 51.6123C34.4355 44.4673 40.2485 38.6544 47.3934 38.6544C54.5384 38.6544 60.3514 44.4673 60.3514 51.6123C60.3514 58.7573 54.5384 64.5702 47.3934 64.5702ZM47.3934 42.3566C42.2899 42.3566 38.1378 46.5087 38.1378 51.6123C38.1378 56.7158 42.2899 60.8679 47.3934 60.8679C52.497 60.8679 56.6491 56.7158 56.6491 51.6123C56.6491 46.5087 52.497 42.3566 47.3934 42.3566Z" fill="#FED739"/>
<path d="M76.271 35.9314C75.7842 35.9314 75.3066 35.7333 74.9623 35.389C74.618 35.0447 74.4199 34.5671 74.4199 34.0802C74.4199 33.5915 74.6178 33.1158 74.9623 32.7715C75.3066 32.4272 75.7842 32.2291 76.271 32.2291C76.7579 32.2291 77.2355 32.4272 77.5796 32.7715C77.9239 33.1158 78.1222 33.5915 78.1222 34.0802C78.1222 34.5671 77.9241 35.0447 77.5796 35.389C77.2355 35.7333 76.7579 35.9314 76.271 35.9314Z" fill="#FED739"/>
</g>
<defs>
<clipPath id="clip0">
<rect width="94.7867" height="94.7867" fill="white"/>
</clipPath>
</defs>
</svg>
