<svg width="80" height="86" viewBox="0 0 80 86" fill="none" xmlns="http://www.w3.org/2000/svg">
<g clip-path="url(#clip0)">
<path d="M47.661 49.2764C53.688 44.7822 55.1438 35.9489 50.9127 29.5471C46.6815 23.1452 38.3658 21.5986 32.339 26.0931C26.3122 30.5875 24.8562 39.4206 29.0873 45.8224C29.9747 47.1651 31.075 48.3339 32.339 49.2764C25.2195 50.5764 20.0123 57.128 20 64.8015V84.4415C19.9998 85.2234 20.5965 85.8576 21.3327 85.8577C21.3328 85.8577 21.3332 85.8577 21.3333 85.8577H58.6667C59.4028 85.8579 59.9998 85.2241 60 84.4422C60 84.442 60 84.4416 60 84.4415V64.8013C59.9875 57.128 54.7805 50.5764 47.661 49.2764ZM29.3333 37.7037C29.3333 31.4461 34.109 26.3733 40 26.3733C45.891 26.3733 50.6667 31.4461 50.6667 37.7037C50.6667 43.9612 45.891 49.0341 40 49.0341C34.1118 49.027 29.34 43.9582 29.3333 37.7037ZM57.3333 83.0252H22.6667V64.8013C22.6742 57.6611 28.1217 51.8746 34.8438 51.8666H45.1563C51.8783 51.8746 57.3258 57.6611 57.3333 64.8013V83.0252Z" fill="white"/>
<path d="M41.3333 9.37781H38.6666V15.043H41.3333V9.37781Z" fill="white"/>
<path d="M55.6097 12.8661L51.8385 16.8719L53.7241 18.8749L57.4953 14.869L55.6097 12.8661Z" fill="white"/>
<path d="M73.3333 83.0251H68V85.8577H73.3333V83.0251Z" fill="white"/>
<path d="M73.3333 68.8622H68V71.6948H73.3333V68.8622Z" fill="white"/>
<path d="M73.3333 54.6993H68V57.5319H73.3333V54.6993Z" fill="white"/>
<path d="M71.4443 39.71L66.3851 41.5024L67.2289 44.1894L72.2881 42.397L71.4443 39.71Z" fill="white"/>
<path d="M67.3018 25.0229L62.2426 26.8154L63.0863 29.5024L68.1455 27.7099L67.3018 25.0229Z" fill="white"/>
<path d="M24.3917 12.8694L22.5059 14.872L26.2765 18.8784L28.1624 16.8758L24.3917 12.8694Z" fill="white"/>
<path d="M12 83.0251H6.66663V85.8577H12V83.0251Z" fill="white"/>
<path d="M12 68.8622H6.66663V71.6948H12V68.8622Z" fill="white"/>
<path d="M12 54.6993H6.66663V57.5319H12V54.6993Z" fill="white"/>
<path d="M8.55802 39.711L7.71509 42.3983L12.7748 44.189L13.6178 41.5017L8.55802 39.711Z" fill="white"/>
<path d="M12.6944 25.0329L11.851 27.7202L16.9107 29.5121L17.7542 26.8248L12.6944 25.0329Z" fill="white"/>
<path d="M78.6666 6.54519C76.4585 6.54271 74.669 4.64186 74.6666 2.2963C74.6666 1.51415 74.0696 0.880005 73.3333 0.880005C72.597 0.880005 72 1.51415 72 2.2963C71.9976 4.64186 70.2081 6.54271 68 6.54519C67.2636 6.54519 66.6666 7.17934 66.6666 7.96149C66.6666 8.74364 67.2636 9.37778 68 9.37778C70.2081 9.38026 71.9976 11.2811 72 13.6267C72 14.4088 72.597 15.043 73.3333 15.043C74.0696 15.043 74.6666 14.4088 74.6666 13.6267C74.669 11.2811 76.4585 9.38026 78.6666 9.37778C79.403 9.37778 80 8.74364 80 7.96149C80 7.17934 79.403 6.54519 78.6666 6.54519ZM73.3333 9.38185C72.9528 8.84384 72.5026 8.36566 71.9961 7.96149C72.5026 7.55731 72.9528 7.07913 73.3333 6.54112C73.7138 7.07913 74.164 7.55731 74.6705 7.96149C74.164 8.36566 73.7138 8.84384 73.3333 9.38185Z" fill="white"/>
<path d="M12 6.54519C9.79183 6.54271 8.00233 4.64186 8 2.2963C8 1.51415 7.403 0.880005 6.66667 0.880005C5.93033 0.880005 5.33333 1.51415 5.33333 2.2963C5.331 4.64186 3.5415 6.54271 1.33333 6.54519C0.597 6.54519 0 7.17934 0 7.96149C0 8.74364 0.597 9.37778 1.33333 9.37778C3.5415 9.38026 5.331 11.2811 5.33333 13.6267C5.33333 14.4088 5.93033 15.043 6.66667 15.043C7.403 15.043 8 14.4088 8 13.6267C8.00233 11.2811 9.79183 9.38026 12 9.37778C12.7363 9.37778 13.3333 8.74364 13.3333 7.96149C13.3333 7.17934 12.7363 6.54519 12 6.54519ZM6.66667 9.38185C6.28617 8.84384 5.836 8.36566 5.3295 7.96149C5.836 7.55731 6.28617 7.07913 6.66667 6.54112C7.04717 7.07913 7.49733 7.55731 8.00383 7.96149C7.49733 8.36566 7.04717 8.84384 6.66667 9.38185Z" fill="white"/>
</g>
<defs>
<clipPath id="clip0">
<rect width="80" height="84.9778" fill="white" transform="translate(0 0.880005)"/>
</clipPath>
</defs>
</svg>
