<svg width="75" height="79" viewBox="0 0 75 79" fill="none" xmlns="http://www.w3.org/2000/svg">
<path d="M1.25 22.6389H18.7878C18.7648 23.0802 18.75 23.5226 18.75 23.9667C18.75 24.141 18.7823 24.3137 18.8451 24.4748C18.908 24.6359 19 24.7823 19.1161 24.9056C19.2322 25.0288 19.37 25.1267 19.5216 25.1934C19.6733 25.2601 19.8358 25.2944 20 25.2944H41.25C41.4481 25.2944 41.6433 25.2444 41.8196 25.1486C41.9959 25.0527 42.1482 24.9137 42.264 24.743C42.3798 24.5723 42.4558 24.3749 42.4857 24.1669C42.5156 23.9589 42.4985 23.7464 42.4358 23.5468L37.303 7.19011C37.9197 6.6807 38.371 5.97935 38.5941 5.1841C38.8171 4.38884 38.8005 3.53945 38.5468 2.75465C38.2931 1.96985 37.8149 1.28889 37.179 0.806946C36.543 0.325005 35.7813 0.0661822 35.0001 0.0666595H22.3588C19.8889 0.0638459 17.4567 0.710229 15.279 1.94819C13.1014 3.18615 11.2459 4.97722 9.87808 7.16173L9.33103 8.03333H1.25C1.08585 8.03332 0.923299 8.06766 0.77164 8.13439C0.619981 8.20111 0.48218 8.29891 0.366106 8.42221C0.250032 8.54551 0.157958 8.69188 0.0951409 8.85298C0.0323242 9.01408 -4.7191e-06 9.18674 5.16679e-10 9.3611V21.3111C-4.7191e-06 21.4855 0.0323242 21.6581 0.0951409 21.8192C0.157958 21.9803 0.250032 22.1267 0.366106 22.25C0.48218 22.3733 0.619981 22.4711 0.77164 22.5378C0.923299 22.6045 1.08585 22.6389 1.25 22.6389ZM21.2888 22.6389C21.4783 19.3653 22.3813 16.1833 23.9265 13.3437L27.4994 13.3444H27.5001C28.1001 13.3447 28.6914 13.1919 29.2242 12.899C29.7571 12.6061 30.216 12.1815 30.5624 11.6611C30.9087 11.1407 31.1324 10.5396 31.2146 9.90823C31.2969 9.27691 31.2352 8.63385 31.0349 8.03308L34.9324 8.03325L39.5157 22.6389H21.2888ZM11.9582 8.63481C13.098 6.81437 14.6443 5.3218 16.459 4.29016C18.2737 3.25852 20.3005 2.71987 22.3588 2.72222H35.0001C35.3313 2.72262 35.6489 2.86269 35.883 3.11165C36.1171 3.36062 36.2486 3.69811 36.2486 4.04999C36.2486 4.40187 36.1171 4.73936 35.883 4.98831C35.6488 5.23726 35.3313 5.37731 35 5.37769L26.2505 5.37736V5.37777H21.25V8.03333H27.5002C27.8317 8.03334 28.1496 8.17324 28.384 8.42225C28.6184 8.67127 28.7501 9.009 28.7501 9.36114C28.7501 9.71329 28.6184 10.051 28.384 10.3C28.1495 10.549 27.8316 10.6889 27.5001 10.6889H27.4998L22.5005 10.6878H22.5002C22.2944 10.6878 22.0918 10.7418 21.9104 10.845C21.7289 10.9481 21.5742 11.0973 21.4601 11.2792C20.8061 12.3239 19.9189 13.1804 18.8776 13.7724C17.8362 14.3644 16.6732 14.6736 15.4921 14.6722H13.75V17.3278H15.4921C17.0578 17.3278 18.6001 16.9236 19.9862 16.1499C19.5796 17.3984 19.2715 18.6806 19.065 19.9833H11.25V9.76315L11.9582 8.63481ZM2.5 10.6889H8.75V19.9833H2.5V10.6889Z" fill="white"/>
<path d="M71.2502 26.6222C70.8233 26.622 70.3995 26.6996 69.9973 26.8517C69.9979 26.7752 70.0001 26.6989 70.0001 26.6222C70.0001 13.4437 59.9066 2.72224 47.5001 2.72224C45.0816 2.71976 42.6785 3.13166 40.3835 3.94207C40.2277 3.99714 40.0836 4.08428 39.9595 4.1985C39.8354 4.31273 39.7338 4.45181 39.6603 4.60779C39.5868 4.76378 39.543 4.93361 39.5314 5.10758C39.5197 5.28156 39.5405 5.45627 39.5924 5.62173L46.1129 26.4007L34.1298 44.2203C33.9372 44.5067 33.8596 44.8627 33.9139 45.2099C33.9683 45.5571 34.1502 45.8671 34.4197 46.0719C38.232 48.977 42.8083 50.534 47.5001 50.5222C49.1824 50.5227 50.8595 50.3235 52.5001 49.9284V77.0778C52.5001 77.2522 52.5324 77.4248 52.5952 77.5859C52.6581 77.747 52.7501 77.8934 52.8662 78.0167C52.9823 78.14 53.1201 78.2378 53.2717 78.3045C53.4234 78.3712 53.586 78.4056 53.7501 78.4056H66.2501C66.4143 78.4056 66.5768 78.3712 66.7285 78.3045C66.8801 78.2378 67.0179 78.14 67.134 78.0167C67.2501 77.8934 67.3421 77.747 67.405 77.5859C67.4678 77.4248 67.5001 77.2522 67.5001 77.0778V57.8717L68.3206 57.2906C70.3771 55.8377 72.0633 53.8668 73.2288 51.5536C74.3942 49.2405 75.0028 46.6569 75.0001 44.0334V30.6055C74.999 29.5494 74.6035 28.537 73.9005 27.7902C73.1975 27.0435 72.2444 26.6234 71.2502 26.6222ZM36.9126 44.6509L48.5172 27.394C48.6319 27.2236 48.7069 27.0268 48.7362 26.8197C48.7655 26.6126 48.7483 26.401 48.6859 26.2024L42.372 6.08188C45.3333 5.25165 48.4345 5.15423 51.4369 5.79712C54.4392 6.44001 57.2627 7.80608 59.6899 9.79016C62.1172 11.7743 64.0835 14.3235 65.4375 17.2416C66.7915 20.1597 67.4972 23.3689 67.5001 26.6222C67.5055 29.3552 67.0105 32.0631 66.0426 34.5953C65.0854 34.6515 64.1847 35.0951 63.5258 35.8349C62.867 36.5747 62.4999 37.5545 62.5001 38.5729L62.5005 40.6723C59.3682 44.4443 55.0781 46.9141 50.3929 47.6426C45.7078 48.3711 40.9312 47.311 36.9126 44.6509ZM65.0001 75.75H55.0001V58.4889H65.0001V75.75ZM72.5001 44.0334C72.5023 46.2197 71.9952 48.3727 71.024 50.3003C70.0528 52.2279 68.6476 53.8703 66.9338 55.0811L65.8716 55.8333H55.0001V49.1602C56.6983 48.524 58.3181 47.6723 59.8241 46.6237C59.1182 48.0782 58.75 49.6909 58.7501 51.3273V53.1778H61.2501V51.3273C61.2488 50.0727 61.5398 48.8373 62.0972 47.7312C62.6545 46.6251 63.4609 45.6827 64.4444 44.9879C64.6157 44.8667 64.7561 44.7024 64.8532 44.5096C64.9503 44.3168 65.0011 44.1015 65.0011 43.8829L65.0001 38.5724C65.0001 38.398 65.0324 38.2254 65.0952 38.0643C65.1579 37.9032 65.25 37.7568 65.366 37.6334C65.6004 37.3844 65.9183 37.2444 66.2498 37.2443C66.5814 37.2443 66.8993 37.3841 67.1338 37.633C67.3683 37.882 67.5 38.2197 67.5001 38.5718V45.2111H70.0001V39.8995H70.0005L70.0002 30.6057C70 30.4312 70.0322 30.2584 70.0949 30.0971C70.1576 29.9358 70.2497 29.7893 70.3657 29.6658C70.4818 29.5424 70.6197 29.4444 70.7714 29.3776C70.9231 29.3108 71.0858 29.2764 71.2501 29.2764C71.4143 29.2763 71.577 29.3107 71.7287 29.3775C71.8805 29.4443 72.0183 29.5423 72.1344 29.6657C72.2505 29.7891 72.3426 29.9357 72.4053 30.0969C72.4681 30.2582 72.5003 30.431 72.5001 30.6055V44.0334Z" fill="white"/>
<path d="M1.25 78.4056H12.5C12.7388 78.4056 12.9726 78.3329 13.1737 78.1962C13.3748 78.0595 13.5349 77.8645 13.6349 77.6342L21.0415 60.5881L30.8839 50.1333C30.9999 50.01 31.092 49.8637 31.1548 49.7026C31.2177 49.5415 31.25 49.3688 31.25 49.1945V42.7151L39.7671 30.0495C39.9006 29.851 39.9801 29.6173 39.9967 29.374C40.0133 29.1306 39.9665 28.8872 39.8614 28.6702C39.7563 28.4533 39.597 28.2713 39.401 28.1443C39.2049 28.0172 38.9797 27.95 38.75 27.95H17.5C17.3358 27.95 17.1733 27.9843 17.0216 28.0511C16.87 28.1178 16.7322 28.2156 16.6161 28.3389C16.5 28.4622 16.408 28.6086 16.3451 28.7697C16.2823 28.9308 16.25 29.1034 16.25 29.2778C16.2504 31.4159 16.522 33.5443 17.0575 35.6053L14.6889 37.4923L14.0659 32.8598C13.9254 31.8151 13.4174 30.8658 12.6442 30.203C11.8711 29.5403 10.8902 29.2134 9.89922 29.2883C8.90823 29.3631 7.98075 29.834 7.30361 30.6062C6.62647 31.3785 6.24999 32.3946 6.25 33.4499V52.7522L0.232848 61.7005C0.0814098 61.9257 -5.78618e-08 62.1955 5.16679e-10 62.4722V77.0778C-4.7191e-06 77.2522 0.0323242 77.4248 0.0951409 77.5859C0.157958 77.747 0.250032 77.8934 0.366106 78.0167C0.48218 78.14 0.619981 78.2378 0.77164 78.3045C0.923299 78.3712 1.08585 78.4056 1.25 78.4056ZM36.3209 30.6056L26.1299 45.7603C23.9914 43.9059 22.2358 41.603 20.9727 38.9955C19.7097 36.388 18.9665 33.5319 18.7894 30.6056H36.3209ZM10.1777 31.9333C10.5209 31.9349 10.8523 32.0671 11.1116 32.306C11.3709 32.5449 11.541 32.8746 11.591 33.2354L12.5126 40.0878C12.5358 40.2604 12.5908 40.4265 12.6744 40.5765C12.758 40.7266 12.8687 40.8576 13 40.9622C14.3941 42.0784 15.5259 43.5224 16.3067 45.181C17.0874 46.8397 17.4958 48.6678 17.5 50.5222H20C19.9953 48.5497 19.6165 46.5985 18.8864 44.7848C18.1562 42.9712 17.0896 41.3324 15.7502 39.9662L17.9036 38.2507C19.5076 42.4525 22.2002 46.0851 25.6692 48.7272C25.8027 48.8288 25.9538 48.9014 26.1138 48.9409C26.2738 48.9804 26.4396 48.9861 26.6017 48.9575C26.7637 48.9289 26.9189 48.8667 27.0583 48.7743C27.1977 48.682 27.3185 48.5614 27.414 48.4194L28.75 46.4327V48.6445L19.7532 58.2011L8.75 52.3572V33.4499C8.75044 33.0478 8.90099 32.6623 9.16864 32.378C9.43629 32.0937 9.79917 31.9338 10.1777 31.9333ZM2.5 62.8978L7.89634 54.8728L18.3573 60.4287L11.7002 75.75H2.5V62.8978Z" fill="white"/>
</svg>
