<svg width="64" height="83" viewBox="0 0 64 83" fill="none" xmlns="http://www.w3.org/2000/svg">
<path d="M59.5 0.403351H42C39.9325 0.403351 38.25 2.19054 38.25 4.38668V7.04224C35.4925 7.04224 33.25 9.42427 33.25 12.3534C33.25 15.2824 35.4925 17.6645 38.25 17.6645V24.3034H48.25V21.6478C48.25 20.1833 49.3713 18.9922 50.75 18.9922C52.1287 18.9922 53.25 20.1833 53.25 21.6478V24.3034H59.5C61.5675 24.3034 63.25 22.5162 63.25 20.32V4.38668C63.25 2.19054 61.5675 0.403351 59.5 0.403351ZM60.75 20.32C60.75 21.0516 60.19 21.6478 59.5 21.6478H55.75C55.75 18.7187 53.5075 16.3367 50.75 16.3367C47.9925 16.3367 45.75 18.7187 45.75 21.6478H40.75V15.0089H38.25C36.8712 15.0089 35.75 13.8179 35.75 12.3534C35.75 10.8888 36.8712 9.69779 38.25 9.69779H40.75V4.38668C40.75 3.65508 41.31 3.05891 42 3.05891H59.5C60.19 3.05891 60.75 3.65508 60.75 4.38668V20.32Z" fill="white"/>
<path d="M38.25 26.9589C35.4925 26.9589 33.25 29.341 33.25 32.27H28.25V25.6311H25.75C24.3713 25.6311 23.25 24.4401 23.25 22.9756C23.25 21.511 24.3713 20.32 25.75 20.32H28.25V8.37003H24.8988C11.5837 8.37003 0.75 19.8779 0.75 34.0214C0.75 41.7464 3.97875 48.9828 9.6075 53.8743L14.5 58.1272V61.7268C13.0487 62.2765 12 63.737 12 65.4658C12 67.3021 13.1812 68.837 14.775 69.2951C14.6012 69.7532 14.5 70.2511 14.5 70.7756C14.5 72.5309 15.5813 74.0074 17.0675 74.5372C17.585 79.1419 21.2787 82.7256 25.75 82.7256C30.2213 82.7256 33.915 79.1419 34.4325 74.5372C35.9188 74.0074 37 72.5309 37 70.7756C37 70.2511 36.8988 69.7532 36.725 69.2938C38.3187 68.8344 39.5 67.3008 39.5 65.4645C39.5 63.7357 38.4512 62.2752 37 61.7254V58.1258L41.8925 53.873C47.5213 48.9828 50.75 41.7464 50.75 34.0214V32.27H43.25C43.25 29.341 41.0075 26.9589 38.25 26.9589ZM24.8988 11.0256H25.75V17.6645C22.9925 17.6645 20.75 20.0465 20.75 22.9756C20.75 25.9047 22.9925 28.2867 25.75 28.2867V32.27H20.75C20.75 29.341 18.5075 26.9589 15.75 26.9589C12.9925 26.9589 10.75 29.341 10.75 32.27H3.3125C4.1575 20.405 13.5163 11.0256 24.8988 11.0256ZM11.19 51.8189C6.36375 47.6245 3.50625 41.5087 3.2675 34.9256H13.25V32.27C13.25 30.8055 14.3713 29.6145 15.75 29.6145C17.1287 29.6145 18.25 30.8055 18.25 32.27V34.9256H25.75V40.2367C22.9925 40.2367 20.75 42.6187 20.75 45.5478C20.75 48.4769 22.9925 50.8589 25.75 50.8589V61.4811H17V56.8684L11.19 51.8189ZM25.75 80.07C22.7325 80.07 20.2075 77.7849 19.6262 74.7589H31.8738C31.2925 77.7849 28.7675 80.07 25.75 80.07ZM33.25 72.1034H18.25C17.56 72.1034 17 71.5072 17 70.7756C17 70.044 17.56 69.4478 18.25 69.4478H33.25C33.94 69.4478 34.5 70.044 34.5 70.7756C34.5 71.5072 33.94 72.1034 33.25 72.1034ZM35.75 66.7923H33.25H18.25H15.75C15.06 66.7923 14.5 66.1961 14.5 65.4645C14.5 64.7329 15.06 64.1367 15.75 64.1367H35.75C36.44 64.1367 37 64.7329 37 65.4645C37 66.1961 36.44 66.7923 35.75 66.7923ZM40.31 51.8189L34.5 56.8684V61.4811H28.25V48.2034H25.75C24.3713 48.2034 23.25 47.0123 23.25 45.5478C23.25 44.0833 24.3713 42.8923 25.75 42.8923H28.25V34.9256H35.75V32.27C35.75 30.8055 36.8713 29.6145 38.25 29.6145C39.6287 29.6145 40.75 30.8055 40.75 32.27V34.9256H48.2325C47.9938 41.5087 45.1362 47.6245 40.31 51.8189Z" fill="white"/>
</svg>
