<svg width="80" height="85" viewBox="0 0 80 85" fill="none" xmlns="http://www.w3.org/2000/svg">
<g clip-path="url(#clip0)">
<path d="M49.0484 34.5998L37.0284 46.6594L31.2597 40.3553C30.6202 39.6559 29.5671 39.64 28.9093 40.3193C28.2509 40.9993 28.236 42.1172 28.8755 42.8166L35.7943 50.361C36.4371 51.0479 37.4758 51.0715 38.1453 50.4136L51.3662 37.1676C51.6873 36.846 51.8748 36.4019 51.8872 35.9335C51.8996 35.4652 51.7361 35.0107 51.4326 34.6704C50.7892 33.9599 49.7283 33.9288 49.0484 34.5998Z" fill="white"/>
<path d="M40.129 16.0403C26.3916 16.0403 15.2214 27.9055 15.2214 42.4976C15.2214 57.0904 26.3916 68.9556 40.129 68.9556C53.867 68.9556 65.0371 57.0904 65.0371 42.4976C65.0371 27.9055 53.867 16.0403 40.129 16.0403ZM40.129 65.4138C28.2255 65.4138 18.5558 55.1244 18.5558 42.4976C18.5558 29.8708 28.2255 19.5821 40.129 19.5821C52.0441 19.5821 61.7028 29.8417 61.7028 42.4976C61.7028 55.1535 52.0441 65.4138 40.129 65.4138Z" fill="white"/>
<path d="M74.4065 32.7568L74.9568 22.255C74.9952 21.5501 74.6344 20.8881 74.0398 20.5727L65.237 15.8444L60.7857 6.49381C60.4829 5.86776 59.8635 5.4866 59.2019 5.5198L49.2984 6.08705L41.0458 0.295578C40.4896 -0.0938872 39.7687 -0.0938872 39.2119 0.295578L30.9593 6.08705L21.0734 5.50251C20.4092 5.461 19.7866 5.84424 19.4896 6.47652L15.0377 15.8271L6.23546 20.5554C5.64544 20.8763 5.28725 21.5342 5.31851 22.2377L5.86816 32.7395L0.41659 41.5055C0.0499388 42.0963 0.0499388 42.8621 0.41659 43.4535L5.85188 52.2369L5.30158 62.7386C5.26315 63.4435 5.62329 64.1056 6.21853 64.421L15.0214 69.1492L19.4727 78.4999C19.7748 79.1266 20.3942 79.5071 21.0565 79.4739L30.943 78.8893L39.1956 84.6801C39.7485 85.082 40.4766 85.082 41.0295 84.6801L49.2821 78.8893L59.1687 79.4739C59.8323 79.5147 60.4549 79.1314 60.7525 78.4999L65.2037 69.1492L74.0066 64.421C74.596 64.0993 74.9548 63.4422 74.9236 62.7386L74.3733 52.2369L79.8248 43.4708C80.1915 42.8801 80.1915 42.1136 79.8248 41.5228L74.4065 32.7568ZM71.3053 50.7849C71.1021 51.1017 71.0076 51.4829 71.0389 51.8654L71.5553 61.7999L63.2363 66.2625C62.9192 66.4313 62.6619 66.7052 62.503 67.0421L58.3012 75.8787L48.9487 75.3302C48.5905 75.3163 48.2369 75.4146 47.9314 75.6131L40.1289 81.0857L32.3269 75.6131C32.056 75.4187 31.7369 75.3136 31.41 75.3122H31.3266L21.9735 75.8615L17.7723 67.0241C17.6134 66.6872 17.3561 66.414 17.0383 66.2452L8.70238 61.7999L9.21947 51.8654C9.23249 51.485 9.13937 51.1093 8.95246 50.7849L3.80111 42.4968L8.95246 34.2088C9.1563 33.8926 9.25073 33.5108 9.21947 33.1289L8.70238 23.1938L17.022 18.7312C17.3392 18.5624 17.5964 18.2891 17.7553 17.9522L21.9565 9.11492L31.3097 9.66418C31.6672 9.67732 32.0209 9.57909 32.3269 9.38056L40.1289 3.90868L47.9314 9.38056C48.2297 9.59708 48.5892 9.69738 48.9487 9.66418L58.3012 9.11492L62.503 17.9522C62.6619 18.2891 62.9192 18.5624 63.2363 18.7312L71.5553 23.1938L71.0389 33.1289C71.0259 33.5087 71.119 33.8843 71.3053 34.2088L76.4573 42.4968L71.3053 50.7849Z" fill="white"/>
</g>
<defs>
<clipPath id="clip0">
<rect width="80" height="84.9778" fill="white" transform="translate(0 0.00445557)"/>
</clipPath>
</defs>
</svg>
