<svg width="80" height="86" viewBox="0 0 80 86" fill="none" xmlns="http://www.w3.org/2000/svg">
<g clip-path="url(#clip0)">
<path d="M47.0312 25.9672H35.3125C34.4497 25.9672 33.75 26.7104 33.75 27.6269V40.9047H30.625C29.7622 40.9047 29.0625 41.6479 29.0625 42.5644C29.0625 43.4809 29.7622 44.2242 30.625 44.2242H33.75V50.8631H30.625C29.7622 50.8631 29.0625 51.6063 29.0625 52.5228C29.0625 53.4393 29.7622 54.1825 30.625 54.1825H33.75V62.4811C33.75 63.3976 34.4497 64.1408 35.3125 64.1408C36.1753 64.1408 36.875 63.3976 36.875 62.4811V54.1825H49.375C50.2378 54.1825 50.9375 53.4393 50.9375 52.5228C50.9375 51.6063 50.2378 50.8631 49.375 50.8631H36.875V44.2242H47.0312C52.6378 44.2242 55.5711 39.6301 55.5711 35.092C55.5711 30.5575 52.6378 25.9672 47.0312 25.9672ZM47.0312 40.9047H36.875V29.2867H47.0312C48.7262 29.2867 50.1308 29.8989 51.0933 31.0578C51.953 32.0926 52.4461 33.5631 52.4461 35.092C52.4461 37.9853 50.7717 40.9047 47.0312 40.9047Z" fill="white"/>
<path d="M40 10.0339C23.1133 10.0339 9.375 24.627 9.375 42.5645C9.375 60.5019 23.1133 75.095 40 75.095C56.8867 75.095 70.625 60.5019 70.625 42.5645C70.625 24.627 56.8867 10.0339 40 10.0339ZM40 71.7756C24.8364 71.7756 12.5 58.6716 12.5 42.5645C12.5 26.4574 24.8364 13.3533 40 13.3533C55.1636 13.3533 67.5 26.4574 67.5 42.5645C67.5 58.6716 55.1636 71.7756 40 71.7756Z" fill="white"/>
<path d="M67.1875 73.1033C68.0504 73.1033 68.75 72.3602 68.75 71.4436C68.75 70.527 68.0504 69.7839 67.1875 69.7839C66.3246 69.7839 65.625 70.527 65.625 71.4436C65.625 72.3602 66.3246 73.1033 67.1875 73.1033Z" fill="white"/>
<path d="M40 0.0755615C17.878 0.0755615 0 19.0598 0 42.5644C0 66.063 17.8722 85.0533 40 85.0533C48.1506 85.0533 55.99 82.4708 62.6705 77.5851C63.3813 77.0653 63.5606 76.0319 63.0713 75.2769C62.5819 74.5219 61.6089 74.3315 60.8983 74.8512C54.7414 79.3539 47.515 81.7339 40 81.7339C19.667 81.7339 3.125 64.1626 3.125 42.5644C3.125 20.9663 19.667 3.39501 40 3.39501C60.333 3.39501 76.875 20.9663 76.875 42.5644C76.875 50.5467 74.6344 58.2229 70.3953 64.7631C69.9059 65.5181 70.0855 66.5514 70.7961 67.0712C71.5069 67.5909 72.4795 67.4002 72.9691 66.6455C77.5687 59.549 80 51.2221 80 42.5644C80 19.0659 62.1278 0.0755615 40 0.0755615Z" fill="white"/>
</g>
<defs>
<clipPath id="clip0">
<rect width="80" height="84.9778" fill="white" transform="translate(0 0.0755615)"/>
</clipPath>
</defs>
</svg>
