<svg width="80" height="85" viewBox="0 0 80 85" fill="none" xmlns="http://www.w3.org/2000/svg">
<path d="M74.375 17.2744H62.5V2.66888C62.5 2.31674 62.3683 1.97901 62.1339 1.73C61.8995 1.481 61.5815 1.34111 61.25 1.34111H51.25C50.9185 1.34111 50.6005 1.481 50.3661 1.73C50.1317 1.97901 50 2.31674 50 2.66888V17.2744H47.7547C47.9846 16.7053 48.1747 16.1189 48.3234 15.5201C48.5847 14.4531 48.5251 13.326 48.153 12.2968C47.7809 11.2675 47.1149 10.3878 46.2484 9.78079C42.5797 7.19163 42.5016 2.84648 42.5 2.66888C42.5001 2.43167 42.4403 2.19877 42.3269 1.9944C42.2135 1.79004 42.0507 1.62166 41.8553 1.50679C41.6599 1.39192 41.4391 1.33475 41.2159 1.34122C40.9927 1.34769 40.7751 1.41757 40.5859 1.54359C40.3063 1.72948 33.75 6.1626 33.75 11.9633C33.7394 13.7867 34.077 15.5935 34.7422 17.2744H32.5V15.9467C32.4998 15.7405 32.4549 15.5372 32.3688 15.3525L26.1188 2.0747C26.0147 1.85421 25.855 1.66881 25.6574 1.53924C25.4598 1.40967 25.2322 1.34105 25 1.34105C24.7678 1.34105 24.5402 1.40967 24.3426 1.53924C24.145 1.66881 23.9853 1.85421 23.8812 2.0747L17.6312 15.3525C17.5451 15.5372 17.5002 15.7405 17.5 15.9467V17.2744H5.625C4.46507 17.2758 3.35302 17.7659 2.53282 18.6371C1.71263 19.5083 1.25128 20.6896 1.25 21.9217V68.3939C1.25128 69.626 1.71263 70.8072 2.53282 71.6785C3.35302 72.5497 4.46507 73.0397 5.625 73.0411H30.6531L29.1531 77.0244H22.5C22.1685 77.0244 21.8505 77.1643 21.6161 77.4133C21.3817 77.6623 21.25 78.0001 21.25 78.3522V82.3355C21.25 82.6877 21.3817 83.0254 21.6161 83.2744C21.8505 83.5234 22.1685 83.6633 22.5 83.6633H57.5C57.8315 83.6633 58.1495 83.5234 58.3839 83.2744C58.6183 83.0254 58.75 82.6877 58.75 82.3355V78.3522C58.75 78.0001 58.6183 77.6623 58.3839 77.4133C58.1495 77.1643 57.8315 77.0244 57.5 77.0244H50.8469L49.3469 73.0411H74.375C75.5349 73.0397 76.647 72.5497 77.4672 71.6785C78.2874 70.8072 78.7487 69.626 78.75 68.3939V21.9217C78.7487 20.6896 78.2874 19.5083 77.4672 18.6371C76.647 17.7659 75.5349 17.2758 74.375 17.2744ZM52.5 3.99666H60V7.98H58.75C58.4185 7.98 58.1005 8.11989 57.8661 8.36889C57.6317 8.6179 57.5 8.95562 57.5 9.30777C57.5 9.65992 57.6317 9.99765 57.8661 10.2467C58.1005 10.4957 58.4185 10.6356 58.75 10.6356H60V15.9467H56.25C55.9185 15.9467 55.6005 16.0866 55.3661 16.3356C55.1317 16.5846 55 16.9223 55 17.2744C55 17.6266 55.1317 17.9643 55.3661 18.2133C55.6005 18.4623 55.9185 18.6022 56.25 18.6022H59.9781C59.9782 18.6835 59.9855 18.7647 60 18.8445V23.9133H58.75C58.4185 23.9133 58.1005 24.0532 57.8661 24.3022C57.6317 24.5512 57.5 24.889 57.5 25.2411C57.5 25.5933 57.6317 25.931 57.8661 26.18C58.1005 26.429 58.4185 26.5689 58.75 26.5689H60V31.88H56.25C55.9185 31.88 55.6005 32.0199 55.3661 32.2689C55.1317 32.5179 55 32.8556 55 33.2078C55 33.5599 55.1317 33.8976 55.3661 34.1467C55.6005 34.3957 55.9185 34.5355 56.25 34.5355H60V39.8467H58.75C58.4185 39.8467 58.1005 39.9865 57.8661 40.2356C57.6317 40.4846 57.5 40.8223 57.5 41.1744C57.5 41.5266 57.6317 41.8643 57.8661 42.1133C58.1005 42.3623 58.4185 42.5022 58.75 42.5022H60V47.8133H56.25C55.9185 47.8133 55.6005 47.9532 55.3661 48.2022C55.1317 48.4512 55 48.789 55 49.1411C55 49.4933 55.1317 49.831 55.3661 50.08C55.6005 50.329 55.9185 50.4689 56.25 50.4689H60V55.78H58.75C58.4185 55.78 58.1005 55.9199 57.8661 56.1689C57.6317 56.4179 57.5 56.7556 57.5 57.1078C57.5 57.4599 57.6317 57.7976 57.8661 58.0466C58.1005 58.2957 58.4185 58.4355 58.75 58.4355H60V62.4189H52.5V3.99666ZM46.25 19.93H50V62.4189H45.1141L47.4953 33.3223C47.5057 33.1969 47.4989 33.0705 47.475 32.9472L45.2219 20.9789C45.5825 20.6599 45.9165 20.3084 46.2203 19.9283C46.2297 19.9283 46.2406 19.93 46.25 19.93ZM40.3219 5.05391C40.9571 7.89309 42.5797 10.372 44.8641 11.9932C45.2961 12.2932 45.6289 12.7293 45.8158 13.2404C46.0027 13.7514 46.0343 14.3118 45.9062 14.8429C45.1516 17.8852 43.2797 19.93 41.25 19.93C38.5391 19.93 36.25 16.2819 36.25 11.9633C36.25 9.1335 38.6469 6.52774 40.3219 5.05391ZM44.8859 34.5355L42.6047 62.4189H39.8953L37.6141 34.5355H44.8859ZM37.775 31.88L39.575 22.3233C40.1185 22.4963 40.6827 22.5847 41.25 22.5855C41.8173 22.5849 42.3813 22.4943 42.9234 22.3167L44.725 31.88H37.775ZM32.5 19.93H36.25C36.2578 19.93 36.2641 19.9283 36.2703 19.9283C36.5753 20.3145 36.9114 20.6716 37.275 20.9955L35.025 32.9472C35.0011 33.0705 34.9943 33.1969 35.0047 33.3223L37.3859 62.4189H32.5V19.93ZM25 5.63813L26.7281 9.30777H23.2719L25 5.63813ZM22.0219 11.9633H27.9781L29.8531 15.9467H20.1469L22.0219 11.9633ZM30 18.6022V62.4189H28.75V18.6022H30ZM23.7391 18.6022H26.25V62.4189H23.75V18.7682C23.7495 18.7127 23.7459 18.6573 23.7391 18.6022ZM20 18.6022H21.2609C21.2541 18.6573 21.2505 18.7127 21.25 18.7682V62.4189H20V18.6022ZM3.75 21.9217C3.75041 21.3936 3.94809 20.8872 4.29963 20.5138C4.65117 20.1404 5.12785 19.9304 5.625 19.93H17.5V62.4189H3.75V21.9217ZM56.25 79.68V81.0078H23.75V79.68H56.25ZM31.8469 77.0244L33.3469 73.0411H46.6531L48.1531 77.0244H31.8469ZM76.25 68.3939C76.2496 68.922 76.0519 69.4283 75.7004 69.8017C75.3488 70.1751 74.8722 70.3851 74.375 70.3855H5.625C5.12785 70.3851 4.65117 70.1751 4.29963 69.8017C3.94809 69.4283 3.75041 68.922 3.75 68.3939V65.0744H76.25V68.3939ZM76.25 62.4189H62.5V19.93H74.375C74.8722 19.9304 75.3488 20.1404 75.7004 20.5138C76.0519 20.8872 76.2496 21.3936 76.25 21.9217V62.4189Z" fill="white"/>
</svg>
